<svg width="58" height="59" viewBox="0 0 58 59" fill="none" xmlns="http://www.w3.org/2000/svg">
<path d="M28.73 58.54C44.5971 58.54 57.46 45.4354 57.46 29.27C57.46 13.1046 44.5971 0 28.73 0C12.8628 0 0 13.1046 0 29.27C0 45.4354 12.8628 58.54 28.73 58.54Z" fill="#F0F0F0"/>
<path fill-rule="evenodd" clip-rule="evenodd" d="M6.5 10.8399H50.95C49.32 8.7999 47.41 6.95992 45.3 5.41992H12.16C10.05 6.95992 8.13995 8.7999 6.50995 10.8399H6.5Z" fill="#F0F0F0"/>
<path fill-rule="evenodd" clip-rule="evenodd" d="M0 29.27C0 29.99 0.0299854 30.72 0.109985 31.44H57.35C57.43 30.72 57.46 29.99 57.46 29.27C57.46 28.55 57.43 27.82 57.35 27.1H0.109985C0.0299854 27.82 0 28.55 0 29.27Z" fill="#F0F0F0"/>
<path fill-rule="evenodd" clip-rule="evenodd" d="M3.12982 42.28H54.3298C55.1698 40.56 55.8698 38.75 56.3798 36.86H1.08984C1.59984 38.75 2.29983 40.56 3.13983 42.28H3.12982Z" fill="#F0F0F0"/>
<path fill-rule="evenodd" clip-rule="evenodd" d="M12.16 53.1299H45.3C47.41 51.5899 49.32 49.75 50.95 47.71H6.5C8.13 49.75 10.04 51.5899 12.15 53.1299H12.16Z" fill="#F0F0F0"/>
<path fill-rule="evenodd" clip-rule="evenodd" d="M1.07983 21.68H56.3699C55.8599 19.79 55.1598 17.98 54.3198 16.26H3.11987C2.27987 17.98 1.57982 19.79 1.06982 21.68H1.07983Z" fill="#F0F0F0"/>
<path fill-rule="evenodd" clip-rule="evenodd" d="M14.0898 5.41998H45.5298C40.8498 2.00998 35.1699 0 29.0399 0C25.2899 0 18.7398 2.00998 14.0898 5.41998Z" fill="#D80027"/>
<path fill-rule="evenodd" clip-rule="evenodd" d="M28.1799 16.26H55.2799C54.3199 14.32 53.1599 12.52 51.8199 10.84H28.1699V16.26H28.1799Z" fill="#D80027"/>
<path fill-rule="evenodd" clip-rule="evenodd" d="M28.1799 27.0999H57.4499C57.2899 25.2299 56.9599 23.4299 56.4899 21.6799H28.1799V27.0999Z" fill="#D80027"/>
<path fill-rule="evenodd" clip-rule="evenodd" d="M0.97998 36.8599H56.47C56.95 35.1099 57.29 33.2999 57.46 31.4399H0C0.17 33.3099 0.50999 35.1099 0.98999 36.8599H0.97998Z" fill="#D80027"/>
<path fill-rule="evenodd" clip-rule="evenodd" d="M6.72998 47.7001H51.81C53.15 46.0201 54.32 44.22 55.29 42.28H3.25C4.22 44.22 5.38998 46.0201 6.72998 47.7001Z" fill="#D80027"/>
<path fill-rule="evenodd" clip-rule="evenodd" d="M29.27 58.55C35.32 58.55 40.92 56.54 45.53 53.13H13C17.61 56.54 23.2199 58.55 29.2599 58.55H29.27Z" fill="#D80027"/>
<path fill-rule="evenodd" clip-rule="evenodd" d="M1 21.69C0.51 23.44 0.17 25.24 0 27.11H29.27V0.0100098C15.81 0.0100098 4.47 9.18001 1 21.7V21.69Z" fill="#0052B4"/>
<path fill-rule="evenodd" clip-rule="evenodd" d="M17.35 7.58997L19.15 13.4H24.93L20.2599 16.98L22.03 22.77L17.35 19.19L12.64 22.77L14.43 16.98L9.75 13.4H15.54L17.35 7.58997Z" fill="#F0F0F0"/>
</svg>
