<svg width="62" height="62" viewBox="0 0 62 62" fill="none" xmlns="http://www.w3.org/2000/svg">
<path d="M61.16 30.58C61.16 13.6911 47.4689 -2.07493e-06 30.58 -1.3367e-06C13.6911 -5.98459e-07 -2.07493e-06 13.6911 -1.33669e-06 30.58C-5.98458e-07 47.4689 13.6911 61.16 30.58 61.16C47.4689 61.16 61.16 47.4689 61.16 30.58Z" fill="#F0F0F0"/>
<path fill-rule="evenodd" clip-rule="evenodd" d="M41.1427 30.6938C41.1427 33.3638 36.4227 40.0438 30.5827 40.0438C24.7427 40.0438 20.0227 33.3638 20.0227 30.6938C20.0227 24.7938 24.7427 20.0239 30.5827 20.0239C36.4227 20.0239 41.1427 24.7838 41.1427 30.6938Z" fill="#D80027"/>
<path fill-rule="evenodd" clip-rule="evenodd" d="M41.1427 30.0339C41.1427 36.1839 36.4227 41.1539 30.5827 41.1539C24.7427 41.1539 20.0227 36.1839 20.0227 30.0339" fill="#0052B4"/>
<path fill-rule="evenodd" clip-rule="evenodd" d="M42.2627 40.0438L44.9227 36.7038L46.7027 38.9037L44.0427 42.2638L42.2627 40.0438Z" fill="black"/>
<path fill-rule="evenodd" clip-rule="evenodd" d="M36.7026 44.9338L40.0526 42.2639L42.2626 44.0438L38.9226 46.7138L36.7026 44.9338Z" fill="black"/>
<path fill-rule="evenodd" clip-rule="evenodd" d="M47.8225 45.6038L50.4925 42.2639L52.2625 44.4838L49.6025 47.8239L47.8225 45.6038Z" fill="black"/>
<path fill-rule="evenodd" clip-rule="evenodd" d="M42.2627 50.4839L45.5927 47.8239L47.8227 49.5939L44.4827 52.2739L42.2627 50.4839Z" fill="black"/>
<path d="M47.1348 40.0748L44.4634 42.735L46.2416 44.5207L48.9129 41.8605L47.1348 40.0748Z" fill="black"/>
<path fill-rule="evenodd" clip-rule="evenodd" d="M40.0325 47.1638L42.6925 44.4838L44.4825 46.2538L41.8025 48.9338L40.0325 47.1638Z" fill="black"/>
<path fill-rule="evenodd" clip-rule="evenodd" d="M47.1525 21.1339L40.0325 14.0239L41.8025 12.2439L48.9325 19.3639L47.1525 21.1339Z" fill="black"/>
<path fill-rule="evenodd" clip-rule="evenodd" d="M40.0526 18.9138L36.7026 16.2539L38.9226 14.4638L42.2626 17.1239L40.0526 18.9138Z" fill="black"/>
<path fill-rule="evenodd" clip-rule="evenodd" d="M44.9227 24.4738L42.2627 21.1138L44.0427 18.9138L46.7027 22.2538L44.9227 24.4738Z" fill="black"/>
<path fill-rule="evenodd" clip-rule="evenodd" d="M45.5927 13.3538L42.2627 10.6738L44.4827 8.90378L47.8227 11.5638L45.5927 13.3538Z" fill="black"/>
<path fill-rule="evenodd" clip-rule="evenodd" d="M50.4925 17.8039L47.8225 15.1239L49.6025 13.3539L52.2625 16.0338L50.4925 17.8039Z" fill="black"/>
<path fill-rule="evenodd" clip-rule="evenodd" d="M10.6726 42.2639L17.7926 50.2639L16.0126 52.2739L8.90259 44.2739L10.6726 42.2639Z" fill="black"/>
<path fill-rule="evenodd" clip-rule="evenodd" d="M18.4726 44.4838L21.1326 47.1638L19.3426 48.9338L16.6826 46.2538L18.4726 44.4838Z" fill="black"/>
<path fill-rule="evenodd" clip-rule="evenodd" d="M13.3426 40.0439L16.6826 42.7039L14.4626 44.4839L11.1226 41.8239L13.3426 40.0439Z" fill="black"/>
<path fill-rule="evenodd" clip-rule="evenodd" d="M16.4626 36.7038L24.4626 44.7238L22.4626 46.7137L14.4626 38.6938L16.4626 36.7038Z" fill="black"/>
<path fill-rule="evenodd" clip-rule="evenodd" d="M17.7926 10.6738L10.6726 17.8038L8.90259 16.0338L16.0126 8.90378L17.7926 10.6738Z" fill="black"/>
<path fill-rule="evenodd" clip-rule="evenodd" d="M21.1326 14.0239L13.1226 21.1339L11.1226 19.3639L19.1226 12.2439L21.1326 14.0239Z" fill="black"/>
<path d="M22.4724 14.4554L14.4666 22.4584L16.4673 24.4599L24.4732 16.4569L22.4724 14.4554Z" fill="black"/>
</svg>
