<svg width="240" height="240" viewBox="0 0 240 240" fill="none" xmlns="http://www.w3.org/2000/svg">
<path d="M21 53H39V185H21V53Z" fill="#6B8BFF"/>
<path d="M137 158H156V171H137V158Z" fill="#FFC636"/>
<path d="M136.229 146.132C135.281 146.132 134.529 145.76 133.973 145.016C133.417 144.268 133.139 143.162 133.139 141.698C133.139 140.71 133.267 139.882 133.523 139.214C133.779 138.546 134.139 138.044 134.603 137.708C135.067 137.372 135.613 137.204 136.241 137.204C137.181 137.204 137.929 137.582 138.485 138.338C139.045 139.09 139.325 140.204 139.325 141.68C139.325 143.148 139.047 144.258 138.491 145.01C137.935 145.758 137.181 146.132 136.229 146.132ZM136.241 145.172C136.861 145.172 137.329 144.9 137.645 144.356C137.965 143.808 138.125 142.918 138.125 141.686C138.125 140.43 137.963 139.526 137.639 138.974C137.319 138.418 136.851 138.14 136.235 138.14C135.623 138.14 135.151 138.42 134.819 138.98C134.491 139.536 134.327 140.438 134.327 141.686C134.327 142.914 134.491 143.802 134.819 144.35C135.147 144.898 135.621 145.172 136.241 145.172ZM140.321 146V144.584H141.641V146H140.321ZM145.982 146.132C145.31 146.132 144.726 145.958 144.23 145.61C143.738 145.262 143.356 144.766 143.084 144.122C142.816 143.474 142.682 142.698 142.682 141.794C142.682 140.866 142.812 140.058 143.072 139.37C143.336 138.682 143.72 138.15 144.224 137.774C144.728 137.394 145.346 137.204 146.078 137.204C146.558 137.204 147 137.294 147.404 137.474C147.812 137.654 148.15 137.912 148.418 138.248C148.686 138.584 148.852 138.99 148.916 139.466H147.872C147.756 139.054 147.546 138.728 147.242 138.488C146.938 138.248 146.556 138.128 146.096 138.128C145.584 138.128 145.156 138.274 144.812 138.566C144.472 138.854 144.224 139.278 144.068 139.838C143.912 140.394 143.858 141.078 143.906 141.89C144.014 141.598 144.178 141.342 144.398 141.122C144.622 140.898 144.882 140.726 145.178 140.606C145.474 140.482 145.794 140.42 146.138 140.42C146.71 140.42 147.21 140.532 147.638 140.756C148.066 140.976 148.4 141.292 148.64 141.704C148.88 142.112 149 142.6 149 143.168C149 143.748 148.876 144.262 148.628 144.71C148.384 145.154 148.036 145.502 147.584 145.754C147.132 146.006 146.598 146.132 145.982 146.132ZM145.97 145.214C146.326 145.214 146.642 145.13 146.918 144.962C147.194 144.794 147.41 144.56 147.566 144.26C147.726 143.96 147.806 143.614 147.806 143.222C147.806 142.826 147.734 142.486 147.59 142.202C147.45 141.918 147.242 141.7 146.966 141.548C146.69 141.396 146.354 141.32 145.958 141.32C145.642 141.32 145.338 141.396 145.046 141.548C144.758 141.696 144.522 141.892 144.338 142.136C144.158 142.38 144.068 142.65 144.068 142.946C144.064 143.386 144.14 143.778 144.296 144.122C144.456 144.462 144.68 144.73 144.968 144.926C145.256 145.118 145.59 145.214 145.97 145.214ZM155.249 138.872H158.213V139.7H155.249V138.872ZM151.601 143.084H158.849V146.948H157.853V143.888H151.601V143.084ZM157.853 136.076H158.849V142.472H157.853V136.076ZM152.885 136.688C153.413 136.688 153.885 136.8 154.301 137.024C154.725 137.24 155.057 137.548 155.297 137.948C155.545 138.34 155.669 138.788 155.669 139.292C155.669 139.804 155.545 140.256 155.297 140.648C155.057 141.04 154.725 141.348 154.301 141.572C153.885 141.796 153.413 141.908 152.885 141.908C152.349 141.908 151.869 141.796 151.445 141.572C151.029 141.348 150.697 141.04 150.449 140.648C150.209 140.256 150.089 139.804 150.089 139.292C150.089 138.788 150.209 138.34 150.449 137.948C150.697 137.548 151.029 137.24 151.445 137.024C151.869 136.8 152.349 136.688 152.885 136.688ZM152.885 137.54C152.533 137.54 152.217 137.616 151.937 137.768C151.665 137.92 151.445 138.128 151.277 138.392C151.117 138.656 151.037 138.956 151.037 139.292C151.037 139.636 151.117 139.944 151.277 140.216C151.445 140.48 151.665 140.688 151.937 140.84C152.217 140.984 152.533 141.056 152.885 141.056C153.229 141.056 153.541 140.984 153.821 140.84C154.101 140.688 154.321 140.48 154.481 140.216C154.641 139.944 154.721 139.636 154.721 139.292C154.721 138.956 154.641 138.656 154.481 138.392C154.321 138.128 154.101 137.92 153.821 137.768C153.541 137.616 153.229 137.54 152.885 137.54Z" fill="#595959"/>
<path d="M198 171H216V185H198V171Z" fill="#FF7A7A"/>
<path d="M195.49 159.132C194.894 159.128 194.368 159.018 193.912 158.802C193.46 158.586 193.104 158.284 192.844 157.896C192.584 157.504 192.444 157.04 192.424 156.504H193.534C193.618 157.044 193.838 157.458 194.194 157.746C194.55 158.034 194.996 158.178 195.532 158.178C195.956 158.178 196.326 158.112 196.642 157.98C196.958 157.844 197.202 157.658 197.374 157.422C197.546 157.186 197.632 156.91 197.632 156.594C197.632 156.246 197.536 155.952 197.344 155.712C197.152 155.472 196.89 155.29 196.558 155.166C196.226 155.038 195.856 154.972 195.448 154.968L194.668 154.95V154.008L195.412 153.99C195.792 153.982 196.132 153.91 196.432 153.774C196.732 153.634 196.968 153.452 197.14 153.228C197.316 153 197.404 152.75 197.404 152.478C197.404 152.238 197.33 152.016 197.182 151.812C197.034 151.604 196.82 151.438 196.54 151.314C196.264 151.19 195.928 151.128 195.532 151.128C195.22 151.128 194.922 151.19 194.638 151.314C194.354 151.434 194.12 151.62 193.936 151.872C193.752 152.124 193.654 152.45 193.642 152.85H192.538C192.538 152.29 192.674 151.814 192.946 151.422C193.218 151.026 193.58 150.724 194.032 150.516C194.488 150.308 194.99 150.204 195.538 150.204C196.138 150.204 196.668 150.292 197.128 150.468C197.588 150.64 197.948 150.892 198.208 151.224C198.468 151.556 198.598 151.962 198.598 152.442C198.598 152.87 198.462 153.258 198.19 153.606C197.918 153.95 197.502 154.22 196.942 154.416C197.322 154.52 197.654 154.672 197.938 154.872C198.222 155.072 198.442 155.318 198.598 155.61C198.754 155.898 198.832 156.23 198.832 156.606C198.832 157.002 198.748 157.358 198.58 157.674C198.416 157.986 198.184 158.252 197.884 158.472C197.584 158.688 197.23 158.854 196.822 158.97C196.414 159.082 195.97 159.136 195.49 159.132ZM199.816 159V157.584H201.136V159H199.816ZM206.175 159V156.786H202.089V155.772L206.133 150.324H207.261V155.808H208.701V156.786H207.261V159H206.175ZM203.151 155.808H206.151V151.782L203.151 155.808ZM214.756 151.872H217.72V152.7H214.756V151.872ZM211.108 156.084H218.356V159.948H217.36V156.888H211.108V156.084ZM217.36 149.076H218.356V155.472H217.36V149.076ZM212.392 149.688C212.92 149.688 213.392 149.8 213.808 150.024C214.232 150.24 214.564 150.548 214.804 150.948C215.052 151.34 215.176 151.788 215.176 152.292C215.176 152.804 215.052 153.256 214.804 153.648C214.564 154.04 214.232 154.348 213.808 154.572C213.392 154.796 212.92 154.908 212.392 154.908C211.856 154.908 211.376 154.796 210.952 154.572C210.536 154.348 210.204 154.04 209.956 153.648C209.716 153.256 209.596 152.804 209.596 152.292C209.596 151.788 209.716 151.34 209.956 150.948C210.204 150.548 210.536 150.24 210.952 150.024C211.376 149.8 211.856 149.688 212.392 149.688ZM212.392 150.54C212.04 150.54 211.724 150.616 211.444 150.768C211.172 150.92 210.952 151.128 210.784 151.392C210.624 151.656 210.544 151.956 210.544 152.292C210.544 152.636 210.624 152.944 210.784 153.216C210.952 153.48 211.172 153.688 211.444 153.84C211.724 153.984 212.04 154.056 212.392 154.056C212.736 154.056 213.048 153.984 213.328 153.84C213.608 153.688 213.828 153.48 213.988 153.216C214.148 152.944 214.228 152.636 214.228 152.292C214.228 151.956 214.148 151.656 213.988 151.392C213.828 151.128 213.608 150.92 213.328 150.768C213.048 150.616 212.736 150.54 212.392 150.54Z" fill="#595959"/>
<path d="M85 64H103V160H85V64Z" fill="#5ED1B1"/>
<path d="M76.3788 52V51.322V50.968C76.3788 50.524 76.4608 50.14 76.6248 49.816C76.7928 49.492 77.0128 49.21 77.2848 48.97C77.5608 48.726 77.8608 48.508 78.1848 48.316C78.5128 48.124 78.8388 47.94 79.1628 47.764C79.4908 47.584 79.7908 47.398 80.0628 47.206C80.3348 47.01 80.5528 46.79 80.7168 46.546C80.8848 46.298 80.9688 46.006 80.9688 45.67C80.9688 45.23 80.8128 44.872 80.5008 44.596C80.1928 44.32 79.7748 44.182 79.2468 44.182C78.6788 44.182 78.2228 44.342 77.8788 44.662C77.5348 44.982 77.3408 45.408 77.2968 45.94H76.1928C76.2048 45.44 76.3288 44.984 76.5648 44.572C76.8008 44.156 77.1468 43.824 77.6028 43.576C78.0588 43.328 78.6208 43.204 79.2888 43.204C79.8688 43.204 80.3728 43.308 80.8008 43.516C81.2288 43.72 81.5588 44.008 81.7908 44.38C82.0268 44.748 82.1448 45.178 82.1448 45.67C82.1448 46.118 82.0628 46.502 81.8988 46.822C81.7348 47.142 81.5168 47.42 81.2448 47.656C80.9768 47.888 80.6828 48.096 80.3628 48.28C80.0428 48.464 79.7208 48.642 79.3968 48.814C79.0728 48.982 78.7768 49.16 78.5088 49.348C78.2408 49.532 78.0248 49.744 77.8608 49.984C77.6968 50.224 77.6148 50.51 77.6148 50.842V51.016H82.1928V52H76.3788ZM86.4092 52.132C85.7372 52.132 85.1532 51.958 84.6572 51.61C84.1652 51.262 83.7832 50.766 83.5112 50.122C83.2432 49.474 83.1092 48.698 83.1092 47.794C83.1092 46.866 83.2392 46.058 83.4992 45.37C83.7632 44.682 84.1472 44.15 84.6512 43.774C85.1552 43.394 85.7732 43.204 86.5052 43.204C86.9852 43.204 87.4272 43.294 87.8312 43.474C88.2392 43.654 88.5772 43.912 88.8452 44.248C89.1132 44.584 89.2792 44.99 89.3432 45.466H88.2992C88.1832 45.054 87.9732 44.728 87.6692 44.488C87.3652 44.248 86.9832 44.128 86.5232 44.128C86.0112 44.128 85.5832 44.274 85.2392 44.566C84.8992 44.854 84.6512 45.278 84.4952 45.838C84.3392 46.394 84.2852 47.078 84.3332 47.89C84.4412 47.598 84.6052 47.342 84.8252 47.122C85.0492 46.898 85.3092 46.726 85.6052 46.606C85.9012 46.482 86.2212 46.42 86.5652 46.42C87.1372 46.42 87.6372 46.532 88.0652 46.756C88.4932 46.976 88.8272 47.292 89.0672 47.704C89.3072 48.112 89.4272 48.6 89.4272 49.168C89.4272 49.748 89.3032 50.262 89.0552 50.71C88.8112 51.154 88.4632 51.502 88.0112 51.754C87.5592 52.006 87.0252 52.132 86.4092 52.132ZM86.3972 51.214C86.7532 51.214 87.0692 51.13 87.3452 50.962C87.6212 50.794 87.8372 50.56 87.9932 50.26C88.1532 49.96 88.2332 49.614 88.2332 49.222C88.2332 48.826 88.1612 48.486 88.0172 48.202C87.8772 47.918 87.6692 47.7 87.3932 47.548C87.1172 47.396 86.7812 47.32 86.3852 47.32C86.0692 47.32 85.7652 47.396 85.4732 47.548C85.1852 47.696 84.9492 47.892 84.7652 48.136C84.5852 48.38 84.4952 48.65 84.4952 48.946C84.4912 49.386 84.5672 49.778 84.7232 50.122C84.8832 50.462 85.1072 50.73 85.3952 50.926C85.6832 51.118 86.0172 51.214 86.3972 51.214ZM90.408 52V50.584H91.728V52H90.408ZM93.1717 52V51.322V50.968C93.1717 50.524 93.2537 50.14 93.4177 49.816C93.5857 49.492 93.8057 49.21 94.0777 48.97C94.3537 48.726 94.6537 48.508 94.9777 48.316C95.3057 48.124 95.6317 47.94 95.9557 47.764C96.2837 47.584 96.5837 47.398 96.8557 47.206C97.1277 47.01 97.3457 46.79 97.5097 46.546C97.6777 46.298 97.7617 46.006 97.7617 45.67C97.7617 45.23 97.6057 44.872 97.2937 44.596C96.9857 44.32 96.5677 44.182 96.0397 44.182C95.4717 44.182 95.0157 44.342 94.6717 44.662C94.3277 44.982 94.1337 45.408 94.0897 45.94H92.9857C92.9977 45.44 93.1217 44.984 93.3577 44.572C93.5937 44.156 93.9397 43.824 94.3957 43.576C94.8517 43.328 95.4137 43.204 96.0817 43.204C96.6617 43.204 97.1657 43.308 97.5937 43.516C98.0217 43.72 98.3517 44.008 98.5837 44.38C98.8197 44.748 98.9377 45.178 98.9377 45.67C98.9377 46.118 98.8557 46.502 98.6917 46.822C98.5277 47.142 98.3097 47.42 98.0377 47.656C97.7697 47.888 97.4757 48.096 97.1557 48.28C96.8357 48.464 96.5137 48.642 96.1897 48.814C95.8657 48.982 95.5697 49.16 95.3017 49.348C95.0337 49.532 94.8177 49.744 94.6537 49.984C94.4897 50.224 94.4077 50.51 94.4077 50.842V51.016H98.9857V52H93.1717ZM105.254 44.872H108.218V45.7H105.254V44.872ZM101.606 49.084H108.854V52.948H107.858V49.888H101.606V49.084ZM107.858 42.076H108.854V48.472H107.858V42.076ZM102.89 42.688C103.418 42.688 103.89 42.8 104.306 43.024C104.73 43.24 105.062 43.548 105.302 43.948C105.55 44.34 105.674 44.788 105.674 45.292C105.674 45.804 105.55 46.256 105.302 46.648C105.062 47.04 104.73 47.348 104.306 47.572C103.89 47.796 103.418 47.908 102.89 47.908C102.354 47.908 101.874 47.796 101.45 47.572C101.034 47.348 100.702 47.04 100.454 46.648C100.214 46.256 100.094 45.804 100.094 45.292C100.094 44.788 100.214 44.34 100.454 43.948C100.702 43.548 101.034 43.24 101.45 43.024C101.874 42.8 102.354 42.688 102.89 42.688ZM102.89 43.54C102.538 43.54 102.222 43.616 101.942 43.768C101.67 43.92 101.45 44.128 101.282 44.392C101.122 44.656 101.042 44.956 101.042 45.292C101.042 45.636 101.122 45.944 101.282 46.216C101.45 46.48 101.67 46.688 101.942 46.84C102.222 46.984 102.538 47.056 102.89 47.056C103.234 47.056 103.546 46.984 103.826 46.84C104.106 46.688 104.326 46.48 104.486 46.216C104.646 45.944 104.726 45.636 104.726 45.292C104.726 44.956 104.646 44.656 104.486 44.392C104.326 44.128 104.106 43.92 103.826 43.768C103.546 43.616 103.234 43.54 102.89 43.54Z" fill="#595959"/>
<path d="M16.6654 41.132C16.0694 41.128 15.5434 41.018 15.0874 40.802C14.6354 40.586 14.2794 40.284 14.0194 39.896C13.7594 39.504 13.6194 39.04 13.5994 38.504H14.7094C14.7934 39.044 15.0134 39.458 15.3694 39.746C15.7254 40.034 16.1714 40.178 16.7074 40.178C17.1314 40.178 17.5014 40.112 17.8174 39.98C18.1334 39.844 18.3774 39.658 18.5494 39.422C18.7214 39.186 18.8074 38.91 18.8074 38.594C18.8074 38.246 18.7114 37.952 18.5194 37.712C18.3274 37.472 18.0654 37.29 17.7334 37.166C17.4014 37.038 17.0314 36.972 16.6234 36.968L15.8434 36.95V36.008L16.5874 35.99C16.9674 35.982 17.3074 35.91 17.6074 35.774C17.9074 35.634 18.1434 35.452 18.3154 35.228C18.4914 35 18.5794 34.75 18.5794 34.478C18.5794 34.238 18.5054 34.016 18.3574 33.812C18.2094 33.604 17.9954 33.438 17.7154 33.314C17.4394 33.19 17.1034 33.128 16.7074 33.128C16.3954 33.128 16.0974 33.19 15.8134 33.314C15.5294 33.434 15.2954 33.62 15.1114 33.872C14.9274 34.124 14.8294 34.45 14.8174 34.85H13.7134C13.7134 34.29 13.8494 33.814 14.1214 33.422C14.3934 33.026 14.7554 32.724 15.2074 32.516C15.6634 32.308 16.1654 32.204 16.7134 32.204C17.3134 32.204 17.8434 32.292 18.3034 32.468C18.7634 32.64 19.1234 32.892 19.3834 33.224C19.6434 33.556 19.7734 33.962 19.7734 34.442C19.7734 34.87 19.6374 35.258 19.3654 35.606C19.0934 35.95 18.6774 36.22 18.1174 36.416C18.4974 36.52 18.8294 36.672 19.1134 36.872C19.3974 37.072 19.6174 37.318 19.7734 37.61C19.9294 37.898 20.0074 38.23 20.0074 38.606C20.0074 39.002 19.9234 39.358 19.7554 39.674C19.5914 39.986 19.3594 40.252 19.0594 40.472C18.7594 40.688 18.4054 40.854 17.9974 40.97C17.5894 41.082 17.1454 41.136 16.6654 41.132ZM23.9277 41.132C22.9797 41.132 22.2277 40.76 21.6717 40.016C21.1157 39.268 20.8377 38.162 20.8377 36.698C20.8377 35.71 20.9657 34.882 21.2217 34.214C21.4777 33.546 21.8377 33.044 22.3017 32.708C22.7657 32.372 23.3117 32.204 23.9397 32.204C24.8797 32.204 25.6277 32.582 26.1837 33.338C26.7437 34.09 27.0237 35.204 27.0237 36.68C27.0237 38.148 26.7457 39.258 26.1897 40.01C25.6337 40.758 24.8797 41.132 23.9277 41.132ZM23.9397 40.172C24.5597 40.172 25.0277 39.9 25.3437 39.356C25.6637 38.808 25.8237 37.918 25.8237 36.686C25.8237 35.43 25.6617 34.526 25.3377 33.974C25.0177 33.418 24.5497 33.14 23.9337 33.14C23.3217 33.14 22.8497 33.42 22.5177 33.98C22.1897 34.536 22.0257 35.438 22.0257 36.686C22.0257 37.914 22.1897 38.802 22.5177 39.35C22.8457 39.898 23.3197 40.172 23.9397 40.172ZM28.0194 41V39.584H29.3394V41H28.0194ZM30.7831 41V40.322V39.968C30.7831 39.524 30.8651 39.14 31.0291 38.816C31.1971 38.492 31.4171 38.21 31.6891 37.97C31.9651 37.726 32.2651 37.508 32.5891 37.316C32.9171 37.124 33.2431 36.94 33.5671 36.764C33.8951 36.584 34.1951 36.398 34.4671 36.206C34.7391 36.01 34.9571 35.79 35.1211 35.546C35.2891 35.298 35.3731 35.006 35.3731 34.67C35.3731 34.23 35.2171 33.872 34.9051 33.596C34.5971 33.32 34.1791 33.182 33.6511 33.182C33.0831 33.182 32.6271 33.342 32.2831 33.662C31.9391 33.982 31.7451 34.408 31.7011 34.94H30.5971C30.6091 34.44 30.7331 33.984 30.9691 33.572C31.2051 33.156 31.5511 32.824 32.0071 32.576C32.4631 32.328 33.0251 32.204 33.6931 32.204C34.2731 32.204 34.7771 32.308 35.2051 32.516C35.6331 32.72 35.9631 33.008 36.1951 33.38C36.4311 33.748 36.5491 34.178 36.5491 34.67C36.5491 35.118 36.4671 35.502 36.3031 35.822C36.1391 36.142 35.9211 36.42 35.6491 36.656C35.3811 36.888 35.0871 37.096 34.7671 37.28C34.4471 37.464 34.1251 37.642 33.8011 37.814C33.4771 37.982 33.1811 38.16 32.9131 38.348C32.6451 38.532 32.4291 38.744 32.2651 38.984C32.1011 39.224 32.0191 39.51 32.0191 39.842V40.016H36.5971V41H30.7831ZM42.8655 33.872H45.8295V34.7H42.8655V33.872ZM39.2175 38.084H46.4655V41.948H45.4695V38.888H39.2175V38.084ZM45.4695 31.076H46.4655V37.472H45.4695V31.076ZM40.5015 31.688C41.0295 31.688 41.5015 31.8 41.9175 32.024C42.3415 32.24 42.6735 32.548 42.9135 32.948C43.1615 33.34 43.2855 33.788 43.2855 34.292C43.2855 34.804 43.1615 35.256 42.9135 35.648C42.6735 36.04 42.3415 36.348 41.9175 36.572C41.5015 36.796 41.0295 36.908 40.5015 36.908C39.9655 36.908 39.4855 36.796 39.0615 36.572C38.6455 36.348 38.3135 36.04 38.0655 35.648C37.8255 35.256 37.7055 34.804 37.7055 34.292C37.7055 33.788 37.8255 33.34 38.0655 32.948C38.3135 32.548 38.6455 32.24 39.0615 32.024C39.4855 31.8 39.9655 31.688 40.5015 31.688ZM40.5015 32.54C40.1495 32.54 39.8335 32.616 39.5535 32.768C39.2815 32.92 39.0615 33.128 38.8935 33.392C38.7335 33.656 38.6535 33.956 38.6535 34.292C38.6535 34.636 38.7335 34.944 38.8935 35.216C39.0615 35.48 39.2815 35.688 39.5535 35.84C39.8335 35.984 40.1495 36.056 40.5015 36.056C40.8455 36.056 41.1575 35.984 41.4375 35.84C41.7175 35.688 41.9375 35.48 42.0975 35.216C42.2575 34.944 42.3375 34.636 42.3375 34.292C42.3375 33.956 42.2575 33.656 42.0975 33.392C41.9375 33.128 41.7175 32.92 41.4375 32.768C41.1575 32.616 40.8455 32.54 40.5015 32.54Z" fill="#595959"/>
<rect width="240" height="1" transform="matrix(1 0 0 -1 0 192)" fill="#DDE3E7"/>
<path d="M23.7949 205.531V215.949H22.9043V210.43H21.4512V215.422H20.5723V205.754H21.4512V209.668H22.9043V205.531H23.7949ZM19.2363 206.75V213.148H15.252V206.75H19.2363ZM16.1191 207.488V212.41H18.3691V207.488H16.1191ZM34.7285 210.172V210.887H30.4277V211.859H33.5098V214.109H27.3223V215.129H33.8262V215.832H26.4082V213.453H32.6074V212.551H26.3848V211.859H29.5254V210.887H25.248V210.172H34.7285ZM30.4277 205.473V206.445H33.7676V207.172H30.498C30.668 208.209 32.2969 208.865 34.2129 208.988L33.9316 209.691C32.1914 209.545 30.6211 209.006 29.9824 208.016C29.3438 209.006 27.7734 209.545 26.0215 209.691L25.752 208.988C27.6562 208.865 29.2852 208.209 29.4668 207.172H26.2207V206.445H29.5254V205.473H30.4277ZM38.1035 206.188C39.4746 206.188 40.4941 207.207 40.4941 208.648C40.4941 210.102 39.4746 211.086 38.1035 211.086C36.709 211.086 35.7129 210.102 35.7246 208.648C35.7129 207.207 36.709 206.188 38.1035 206.188ZM38.1035 206.984C37.2129 206.984 36.5449 207.688 36.5566 208.648C36.5449 209.609 37.2129 210.312 38.1035 210.312C38.9941 210.312 39.6387 209.609 39.6504 208.648C39.6387 207.688 38.9941 206.984 38.1035 206.984ZM44.4551 205.543V211.742H43.5762V208.988H42.1934V211.672H41.3262V205.742H42.1934V208.227H43.5762V205.543H44.4551ZM44.4551 212.328V215.949H43.5527V213.066H37.4355V212.328H44.4551Z" fill="#434343"/>
<path d="M78.6094 205.531V215.949H77.7188V210.43H76.2656V215.422H75.3867V205.754H76.2656V209.668H77.7188V205.531H78.6094ZM74.0508 206.75V213.148H70.0664V206.75H74.0508ZM70.9336 207.488V212.41H73.1836V207.488H70.9336ZM89.543 210.172V210.887H85.2422V211.859H88.3242V214.109H82.1367V215.129H88.6406V215.832H81.2227V213.453H87.4219V212.551H81.1992V211.859H84.3398V210.887H80.0625V210.172H89.543ZM85.2422 205.473V206.445H88.582V207.172H85.3125C85.4824 208.209 87.1113 208.865 89.0273 208.988L88.7461 209.691C87.0059 209.545 85.4355 209.006 84.7969 208.016C84.1582 209.006 82.5879 209.545 80.8359 209.691L80.5664 208.988C82.4707 208.865 84.0996 208.209 84.2812 207.172H81.0352V206.445H84.3398V205.473H85.2422ZM99.0117 205.543V213.453H98.0859V212.375H95.9297V211.707H98.0859V205.543H99.0117ZM99.2695 214.953V215.727H91.8633V212.68H92.7891V214.953H99.2695ZM90.3633 210.371C92.3086 210.359 94.9102 210.348 97.1484 210.066L97.207 210.734C96.2754 210.881 95.3027 210.975 94.3477 211.027V213.09H93.4219V211.074C92.3672 211.121 91.3652 211.127 90.4922 211.121L90.3633 210.371ZM93.7852 205.965C95.3086 205.965 96.3516 206.691 96.3633 207.781C96.3516 208.895 95.3086 209.586 93.7852 209.586C92.25 209.586 91.207 208.895 91.207 207.781C91.207 206.691 92.25 205.965 93.7852 205.965ZM93.7852 206.668C92.7656 206.656 92.0742 207.113 92.0859 207.781C92.0742 208.461 92.7656 208.906 93.7852 208.906C94.7695 208.906 95.4727 208.461 95.4844 207.781C95.4727 207.113 94.7695 206.656 93.7852 206.668ZM108.855 205.531V209.773H110.543V210.547H108.855V215.949H107.941V205.531H108.855ZM106.16 206.656C106.16 209.609 104.777 212.293 101.379 213.969L100.863 213.242C103.559 211.9 105.023 209.896 105.234 207.43H101.344V206.656H106.16Z" fill="#434343"/>
<path d="M140.818 206.527V207.277H139.752V210.723C140.285 210.688 140.812 210.641 141.311 210.582L141.381 211.273C139.271 211.602 136.811 211.648 135.006 211.648L134.9 210.887L136.248 210.863V207.277H135.193V206.527H140.818ZM143.01 205.543V208.707H144.58V209.492H143.01V213.207H142.096V205.543H143.01ZM143.49 214.953V215.727H136.494V212.48H137.396V214.953H143.49ZM137.15 210.852C137.707 210.834 138.281 210.816 138.85 210.781V207.277H137.15V210.852ZM151.014 206.34V206.891C151.002 207.57 151.002 208.613 150.744 209.973L149.818 209.902C150.07 208.654 150.094 207.77 150.111 207.113H145.822V206.34H151.014ZM148.33 208.648V210.887C149.484 210.84 150.68 210.758 151.764 210.605L151.822 211.285C149.643 211.66 147.123 211.707 145.271 211.707L145.178 210.945C145.852 210.939 146.613 210.934 147.416 210.91V208.648H148.33ZM153.404 205.531V208.93H154.928V209.715H153.404V213.371H152.467V205.531H153.404ZM153.744 214.953V215.727H146.783V212.668H147.709V214.953H153.744ZM164.197 205.531V215.973H163.271V205.531H164.197ZM157.131 206.422V209.176H160.236V206.422H161.139V213.453H156.217V206.422H157.131ZM157.131 212.68H160.236V209.914H157.131V212.68Z" fill="#434343"/>
<path d="M192.551 206.164C193.43 206.158 194.18 206.486 194.66 207.043H197.391V205.531H198.316V211.707H197.391V210.219H194.672C194.18 210.775 193.43 211.104 192.551 211.098C190.992 211.109 189.844 210.09 189.844 208.637C189.844 207.172 190.992 206.152 192.551 206.164ZM192.551 206.961C191.484 206.949 190.723 207.652 190.723 208.637C190.723 209.609 191.484 210.312 192.551 210.312C193.582 210.312 194.355 209.609 194.355 208.637C194.355 207.652 193.582 206.949 192.551 206.961ZM194.859 211.953C197.016 211.953 198.352 212.68 198.352 213.934C198.352 215.199 197.016 215.926 194.859 215.926C192.691 215.926 191.367 215.199 191.367 213.934C191.367 212.68 192.691 211.953 194.859 211.953ZM194.859 212.668C193.266 212.668 192.27 213.148 192.27 213.934C192.27 214.719 193.266 215.188 194.859 215.188C196.465 215.188 197.449 214.719 197.449 213.934C197.449 213.148 196.465 212.668 194.859 212.668ZM195.105 207.793C195.193 208.051 195.246 208.332 195.246 208.637C195.246 208.93 195.193 209.205 195.105 209.457H197.391V207.793H195.105ZM202.922 206.023C204.322 206.012 205.383 206.826 205.582 208.027H207.762V205.531H208.688V211.121H207.762V208.789H205.594C205.406 210.02 204.334 210.84 202.922 210.84C201.34 210.84 200.215 209.855 200.215 208.426C200.215 207.008 201.34 206.012 202.922 206.023ZM202.922 206.809C201.855 206.797 201.094 207.465 201.094 208.426C201.094 209.375 201.855 210.066 202.922 210.066C203.977 210.066 204.727 209.375 204.727 208.426C204.727 207.465 203.977 206.797 202.922 206.809ZM202.898 211.648V212.973H207.762V211.648H208.688V215.809H201.973V211.648H202.898ZM202.898 215.059H207.762V213.711H202.898V215.059ZM218.859 214.953V215.727H211.652V212.727H212.578V214.953H218.859ZM219.949 211.121V211.895H210.422V211.121H214.711V209.352H215.613V211.121H219.949ZM215.625 206.281C215.625 207.758 217.453 209.012 219.281 209.305L218.918 210.031C217.354 209.727 215.812 208.842 215.168 207.582C214.523 208.848 212.994 209.738 211.418 210.031L211.043 209.305C212.871 209 214.699 207.746 214.699 206.281V205.812H215.625V206.281ZM229.395 212.293V215.949H228.48V213.066H222.387V212.293H229.395ZM229.395 205.531V211.73H228.48V205.531H229.395ZM223.77 206.164C225.352 206.152 226.5 207.172 226.5 208.613C226.5 210.078 225.352 211.086 223.77 211.086C222.188 211.086 221.039 210.078 221.039 208.613C221.039 207.172 222.188 206.152 223.77 206.164ZM223.77 206.949C222.703 206.949 221.93 207.629 221.941 208.613C221.93 209.609 222.703 210.301 223.77 210.289C224.824 210.301 225.598 209.609 225.598 208.613C225.598 207.629 224.824 206.949 223.77 206.949Z" fill="#434343"/>
</svg>
