<svg width="140" height="140" viewBox="0 0 140 140" fill="none" xmlns="http://www.w3.org/2000/svg">
<path d="M140 70C140 84.7825 135.32 99.1856 126.631 111.145C117.942 123.104 105.69 132.006 91.6312 136.574C77.5722 141.142 62.4278 141.142 48.3688 136.574C34.3098 132.006 22.0578 123.104 13.3688 111.145L24.695 102.916C31.6462 112.483 41.4478 119.605 52.695 123.259C63.9423 126.914 76.0577 126.914 87.3049 123.259C98.5522 119.605 108.354 112.483 115.305 102.916C122.256 93.3485 126 81.826 126 70H140Z" fill="#FFC636"/>
<path d="M39.717 133.111C29.0869 128.01 19.9174 120.307 13.0594 110.716L24.4475 102.573C29.9339 110.245 37.2695 116.408 45.7736 120.488L39.717 133.111Z" fill="#FF9F40"/>
<path d="M48.0966 3.51511C58.6244 0.0467395 69.8253 -0.87195 80.7775 0.834656C91.7298 2.54126 102.12 6.82437 111.094 13.3315C120.067 19.8386 127.367 28.3836 132.392 38.2633C137.418 48.143 140.025 59.0749 140 70.1593L126 70.1274C126.02 61.2599 123.934 52.5144 119.914 44.6107C115.893 36.7069 110.054 29.8709 102.875 24.6652C95.6961 19.4595 87.3838 16.033 78.622 14.6677C69.8602 13.3024 60.8995 14.0374 52.4773 16.8121L48.0966 3.51511Z" fill="#3AA8FF"/>
<path d="M13.5433 111.384C7.01246 102.475 2.68294 92.146 0.908735 81.2426C-0.865473 70.3393 -0.0339953 59.1709 3.33519 48.6505C6.70437 38.1301 12.5156 28.5564 20.2937 20.7122C28.0719 12.868 37.5961 6.97608 48.0876 3.51807L52.4701 16.8145C44.0768 19.5809 36.4575 24.2944 30.235 30.5698C24.0125 36.8451 19.3635 44.504 16.6681 52.9204C13.9728 61.3367 13.3076 70.2715 14.727 78.9941C16.1464 87.7168 19.61 95.9797 24.8346 103.107L13.5433 111.384Z" fill="#21D0E2"/>
<path d="M56.2402 57.5947V58.4199H45.957V57.5947H50.6035V56.1855H51.5811V57.5947H56.2402ZM51.5811 51.7168V52.8467H55.1992V53.6592H51.6445C51.7271 54.9097 53.5171 55.7729 55.6309 55.9697L55.3262 56.7441C53.4536 56.5474 51.7842 55.8745 51.0986 54.7383C50.4067 55.8745 48.731 56.5474 46.8711 56.7441L46.5537 55.9697C48.6675 55.7729 50.4575 54.9097 50.5527 53.6592H47.0234V52.8467H50.6035V51.7168H51.5811ZM51.0986 59.2705C53.5488 59.2705 54.9707 59.9307 54.9834 61.1367C54.9707 62.3555 53.5488 63.0029 51.0986 63.0029C48.6484 63.0029 47.2012 62.3555 47.2012 61.1367C47.2012 59.9307 48.6484 59.2705 51.0986 59.2705ZM51.0986 60.0195C49.2705 60.0195 48.2041 60.4258 48.2168 61.1367C48.2041 61.8477 49.2705 62.2412 51.0986 62.2285C52.9014 62.2412 53.9805 61.8477 53.9805 61.1367C53.9805 60.4258 52.9014 60.0195 51.0986 60.0195ZM70.1289 51.7422V63.0283H69.1641V57.0488H67.5898V62.457H66.6377V51.9834H67.5898V56.2236H69.1641V51.7422H70.1289ZM65.1904 53.0625V59.9941H60.874V53.0625H65.1904ZM61.8135 53.8623V59.1943H64.251V53.8623H61.8135ZM81.9736 56.7695V57.5439H77.3145V58.5977H80.6533V61.0352H73.9502V62.1396H80.9961V62.9014H72.96V60.3242H79.6758V59.3467H72.9346V58.5977H76.3369V57.5439H71.7031V56.7695H81.9736ZM77.3145 51.6787V52.7324H80.9326V53.5195H77.3906C77.5747 54.6431 79.3394 55.354 81.415 55.4873L81.1104 56.249C79.2251 56.0903 77.5239 55.5063 76.832 54.4336C76.1401 55.5063 74.439 56.0903 72.541 56.249L72.249 55.4873C74.312 55.354 76.0767 54.6431 76.2734 53.5195H72.7568V52.7324H76.3369V51.6787H77.3145ZM85.6299 52.4531C87.1152 52.4531 88.2197 53.5576 88.2197 55.1191C88.2197 56.6934 87.1152 57.7598 85.6299 57.7598C84.1191 57.7598 83.04 56.6934 83.0527 55.1191C83.04 53.5576 84.1191 52.4531 85.6299 52.4531ZM85.6299 53.3164C84.665 53.3164 83.9414 54.0781 83.9541 55.1191C83.9414 56.1602 84.665 56.9219 85.6299 56.9219C86.5947 56.9219 87.293 56.1602 87.3057 55.1191C87.293 54.0781 86.5947 53.3164 85.6299 53.3164ZM92.5107 51.7549V58.4707H91.5586V55.4873H90.0605V58.3945H89.1211V51.9707H90.0605V54.6621H91.5586V51.7549H92.5107ZM92.5107 59.1055V63.0283H91.5332V59.9053H84.9062V59.1055H92.5107Z" fill="#747474"/>
<path d="M50.9141 71.8594V86H48.3555V74.3398H48.2773L44.9766 76.4492V74.125L48.4727 71.8594H50.9141ZM59.6445 86.1953C56.8906 86.1758 54.1172 84.5352 54.1367 79.3203C54.1367 74.4766 56.3438 71.6641 59.8008 71.6641C62.5352 71.6641 64.4102 73.3828 64.7227 75.668H62.2031C61.9492 74.5938 61.0898 73.8711 59.8008 73.8711C57.75 73.8711 56.5977 75.6875 56.5977 78.6562H56.7344C57.457 77.4453 58.8242 76.7227 60.3672 76.7227C62.9062 76.7227 64.8594 78.6367 64.8594 81.3125C64.8594 84.125 62.7695 86.2148 59.6445 86.1953ZM59.6445 84.1445C61.2266 84.1445 62.3984 82.9141 62.3984 81.3711C62.3984 79.8672 61.2461 78.6562 59.6836 78.6562C58.1016 78.6562 56.8906 79.9062 56.8711 81.3906C56.8906 82.875 58.043 84.1445 59.6445 84.1445ZM72.1445 86.1953C69 86.1953 66.7734 84.5156 66.7734 82.2109C66.7734 80.4141 68.1016 78.9492 69.8008 78.6758V78.5977C68.3164 78.2852 67.3008 76.9961 67.3008 75.4531C67.3008 73.2656 69.3516 71.6641 72.1445 71.6641C74.918 71.6641 76.9688 73.2656 76.9688 75.4531C76.9688 76.9961 75.9336 78.2852 74.4688 78.5977V78.6758C76.168 78.9492 77.5156 80.4141 77.5156 82.2109C77.5156 84.5156 75.2695 86.1953 72.1445 86.1953ZM72.1445 84.1836C73.8047 84.1836 74.8984 83.2852 74.8984 81.9766C74.8984 80.6484 73.7266 79.6719 72.1445 79.6719C70.543 79.6719 69.3711 80.6484 69.3906 81.9766C69.3711 83.2852 70.4648 84.1836 72.1445 84.1836ZM72.1445 77.7773C73.5117 77.7773 74.4883 76.918 74.4883 75.6875C74.4883 74.4961 73.5312 73.6562 72.1445 73.6562C70.7383 73.6562 69.7812 74.4766 69.7812 75.6875C69.7812 76.918 70.7578 77.7773 72.1445 77.7773ZM93.8242 81.3711V87.7578H91.6562V83.1094H81.793V81.3711H93.8242ZM93.8242 70.082V80.5117H91.6562V76.2539H88.4727C88.043 78.2949 86.2266 79.6719 83.9414 79.6719C81.2852 79.6719 79.2734 77.875 79.2734 75.3359C79.2734 72.8359 81.2852 71.0391 83.9414 71.0586C86.2363 71.0391 88.0527 72.4258 88.4922 74.457H91.6562V70.082H93.8242ZM83.9414 72.8945C82.457 72.8945 81.3438 73.8711 81.3438 75.3359C81.3438 76.8594 82.457 77.8164 83.9414 77.8359C85.3867 77.8164 86.4805 76.8594 86.5 75.3359C86.4805 73.8711 85.3867 72.8945 83.9414 72.8945Z" fill="#434343"/>
</svg>
